# xmcd
#
# Track frame offsets:
#	150
#	21928
#	37600
#	57025
#	80614
#	106560
#	124095
#	141709
#	163847
#	181746
#	199177
#	213397
#
# Disc length: 3188 seconds
#
# Revision: 4
# Processed by: cddbd v1.5.1PL0 Copyright (c) Steve Scherf et al.
# Submitted via: audiograbber 1.82.02
#
DISCID=9e0c720c
DTITLE=Thisway - Thisway
DYEAR=2002
DGENRE=Rock
TTITLE0=Fast Asleep
TTITLE1=Looking For A Good Time
TTITLE2=Seven Groove
TTITLE3=Any Other Way
TTITLE4=Celebrate
TTITLE5=Head To The Ground
TTITLE6=One Day
TTITLE7=Movie Song
TTITLE8=Politics Of Me
TTITLE9=Undertow
TTITLE10=Let You Go
TTITLE11=Sleep
EXTD=CD US 1991 - Atlantic (7-8233-2) - BMG D154045\n
EXTT0=
EXTT1=
EXTT2=
EXTT3=
EXTT4=
EXTT5=
EXTT6=
EXTT7=
EXTT8=
EXTT9=
EXTT10=
EXTT11=
PLAYORDER=
